<svg width="143" height="33" viewBox="0 0 143 33" fill="none" xmlns="http://www.w3.org/2000/svg">
<path d="M10.08 0.475998L12.024 2.708L0.072 26.036H4.86L7.452 20.744H12.384V26.036L16.632 32.552V0.475998H10.08ZM12.96 17.108H9.18L12.96 9.368V17.108ZM31.6659 10.412H23.8899C21.0099 10.412 19.7499 12.86 19.7499 15.524C19.7499 17.576 24.6819 20.204 25.9419 21.032L25.5099 22.652H21.0099L17.3739 25.964H26.0499C28.9299 25.964 30.2619 23.084 30.2619 20.42C30.2619 18.404 25.3299 15.884 24.0699 14.948L24.4299 13.688H27.9219L31.6659 10.412ZM41.465 13.688L45.857 10.412H39.413L39.809 8.972L36.497 5.156L35.129 10.412H33.257L29.009 13.688H34.157C33.761 15.488 31.565 22.652 31.565 24.02C31.565 25.532 32.897 25.964 34.157 25.964H43.769L38.621 22.652H36.137L38.513 13.688H41.465ZM57.04 10.376C55.636 10.376 54.196 10.556 52.9 10.628L52.972 10.412H45.628L47.896 13.256L44.728 25.964H48.796L52.036 13.832H55.06L54.16 17.18L58.912 15.344C59.128 14.336 59.704 13.22 59.704 12.248C59.704 10.736 58.264 10.376 57.04 10.376ZM70.9017 10.412H64.3857C62.8377 10.412 61.4337 10.988 61.0377 12.644C60.4977 14.66 58.1577 22.58 58.1577 24.128C58.1577 25.568 59.4537 25.964 60.7137 25.964H67.1937C68.7777 25.964 70.1457 25.352 70.6137 23.732C71.0457 22.04 73.5657 13.508 73.5657 12.32C73.5657 10.88 72.1617 10.412 70.9017 10.412ZM68.9577 13.688L66.6177 22.652H62.6577L64.9977 13.688H68.9577ZM72.5077 7.064L75.6757 4.112H78.3397L70.7797 32.408L77.2597 26L83.0557 4.112H86.5117L87.3757 6.848L89.0677 0.475998H74.2717L72.5077 7.064ZM87.4001 9.044H91.7921L92.8721 4.94H88.4801L87.4001 9.044ZM82.9721 26.18H87.1481L91.3961 10.412H87.1481L82.9721 26.18ZM112.874 10.376C110.822 10.376 108.662 10.628 106.646 10.772C106.034 10.412 105.386 10.376 104.702 10.376C103.046 10.376 101.282 10.556 99.5901 10.664L99.7341 10.412H92.8941L94.8381 12.752L91.3101 25.964H95.5581L98.7981 13.76H102.722L99.4821 25.964H103.694L106.934 13.76H110.858L107.582 25.964H111.902C112.406 24.2 115.502 13.256 115.502 12.248C115.502 10.736 114.098 10.376 112.874 10.376ZM126.934 10.412H120.706C119.158 10.412 117.754 10.988 117.358 12.644C116.854 14.336 114.478 22.724 114.478 24.02C114.478 25.532 115.774 25.964 117.034 25.964H124.954L122.326 22.688H118.87L119.734 19.376H126.538L128.05 18.404C128.482 16.712 129.634 14.048 129.634 12.32C129.634 10.88 128.194 10.412 126.934 10.412ZM120.634 16.172L121.282 13.652H125.098L124.414 16.172H120.634ZM142.338 10.412H134.562C131.682 10.412 130.422 12.86 130.422 15.524C130.422 17.576 135.354 20.204 136.614 21.032L136.182 22.652H131.682L128.046 25.964H136.722C139.602 25.964 140.934 23.084 140.934 20.42C140.934 18.404 136.002 15.884 134.742 14.948L135.102 13.688H138.594L142.338 10.412Z" fill="#FAFAFA"/>
</svg>
