<svg width="27" height="27" viewBox="0 0 27 27" fill="none" xmlns="http://www.w3.org/2000/svg">
<path d="M20.2491 0.0056178L16.7478 0C12.8142 0 10.2721 2.60806 10.2721 6.64474V9.7084H6.75172C6.44751 9.7084 6.20117 9.95503 6.20117 10.2592V14.6981C6.20117 15.0023 6.44779 15.2487 6.75172 15.2487H10.2721V26.4495C10.2721 26.7537 10.5185 27 10.8227 27H15.4158C15.72 27 15.9663 26.7534 15.9663 26.4495V15.2487H20.0825C20.3867 15.2487 20.633 15.0023 20.633 14.6981L20.6347 10.2592C20.6347 10.1132 20.5766 9.97328 20.4735 9.86992C20.3704 9.76655 20.2299 9.7084 20.0839 9.7084H15.9663V7.11129C15.9663 5.86302 16.2638 5.22933 17.8899 5.22933L20.2485 5.22849C20.5524 5.22849 20.7988 4.98187 20.7988 4.67794V0.556162C20.7988 0.25252 20.5527 0.00617958 20.2491 0.0056178Z" fill="#FAFAFA"/>
</svg>
