<svg width="27" height="27" viewBox="0 0 27 27" fill="none" xmlns="http://www.w3.org/2000/svg">
<g clip-path="url(#clip0_92_265)">
<path d="M19.5487 0H7.45082C3.34244 0 0 3.3426 0 7.45098V19.5489C0 23.6574 3.34244 26.9998 7.45082 26.9998H19.5487C23.6574 26.9998 26.9998 23.6572 26.9998 19.5489V7.45098C27 3.3426 23.6574 0 19.5487 0ZM24.6044 19.5489C24.6044 22.3365 22.3365 24.6043 19.5489 24.6043H7.45082C4.66335 24.6044 2.39556 22.3365 2.39556 19.5489V7.45098C2.39556 4.66351 4.66335 2.39556 7.45082 2.39556H19.5487C22.3363 2.39556 24.6043 4.66351 24.6043 7.45098V19.5489H24.6044Z" fill="#FAFAFA"/>
<path d="M13.4999 6.54297C9.66366 6.54297 6.54272 9.6639 6.54272 13.5001C6.54272 17.3362 9.66366 20.457 13.4999 20.457C17.3361 20.457 20.4571 17.3362 20.4571 13.5001C20.4571 9.6639 17.3361 6.54297 13.4999 6.54297ZM13.4999 18.0613C10.9847 18.0613 8.93828 16.0152 8.93828 13.5C8.93828 10.9846 10.9846 8.93837 13.4999 8.93837C16.0152 8.93837 18.0615 10.9846 18.0615 13.5C18.0615 16.0152 16.0151 18.0613 13.4999 18.0613Z" fill="#FAFAFA"/>
<path d="M20.7489 4.51184C20.2874 4.51184 19.834 4.69869 19.508 5.02609C19.1805 5.35188 18.9922 5.80544 18.9922 6.26858C18.9922 6.73029 19.1806 7.18368 19.508 7.51108C19.8338 7.83687 20.2874 8.02532 20.7489 8.02532C21.2121 8.02532 21.664 7.83687 21.9914 7.51108C22.3188 7.18368 22.5057 6.73013 22.5057 6.26858C22.5057 5.80544 22.3188 5.35188 21.9914 5.02609C21.6656 4.69869 21.2121 4.51184 20.7489 4.51184Z" fill="#FAFAFA"/>
</g>
<defs>
<clipPath id="clip0_92_265">
<rect width="27" height="27" fill="white"/>
</clipPath>
</defs>
</svg>
