<svg width="27" height="27" viewBox="0 0 27 27" fill="none" xmlns="http://www.w3.org/2000/svg">
<g clip-path="url(#clip0_92_270)">
<path d="M27 5.12893C26.0062 5.56926 24.94 5.8679 23.8196 6.00122C24.9636 5.31621 25.8392 4.22968 26.2542 2.93897C25.1812 3.57334 23.9968 4.03397 22.7347 4.28368C21.7241 3.20557 20.2866 2.53406 18.6922 2.53406C15.6334 2.53406 13.1532 5.01422 13.1532 8.0714C13.1532 8.50499 13.2021 8.92847 13.2966 9.33343C8.69401 9.10225 4.61272 6.89712 1.88118 3.54634C1.40369 4.36296 1.13206 5.31448 1.13206 6.33021C1.13206 8.25193 2.11063 9.94754 3.59537 10.9396C2.68765 10.9092 1.83393 10.6595 1.08653 10.2445V10.3136C1.08653 12.9963 2.99643 15.2351 5.52887 15.7447C5.06489 15.8695 4.57562 15.9387 4.06946 15.9387C3.7118 15.9387 3.36592 15.9033 3.02678 15.8358C3.732 18.0376 5.7769 19.6387 8.19971 19.6826C6.30499 21.1673 3.91593 22.0497 1.32106 22.0497C0.873971 22.0497 0.433589 22.0227 0 21.9738C2.45149 23.548 5.36189 24.4658 8.48992 24.4658C18.6788 24.4658 24.2482 16.0265 24.2482 8.70749L24.2297 7.99044C25.3179 7.21428 26.2593 6.2391 27 5.12893Z" fill="#FAFAFA"/>
</g>
<defs>
<clipPath id="clip0_92_270">
<rect width="27" height="27" fill="white"/>
</clipPath>
</defs>
</svg>
